<svg xmlns="http://www.w3.org/2000/svg" version="1.0" width="352.000000pt" height="352.000000pt" viewBox="0 0 352.000000 352.000000" preserveAspectRatio="xMidYMid meet">
<g transform="translate(0.000000,352.000000) scale(0.100000,-0.100000)" fill="#0087a8" stroke="none">
<path d="M1560 3480 c-534 -67 -996 -357 -1283 -807 -321 -503 -355 -1168 -87 -1704 250 -500 691 -833 1250 -945 55 -10 155 -18 280 -21 169 -4 212 -2 325 17 818 138 1416 810 1461 1641 16 295 -47 585 -186 864 -91 183 -178 303 -325 450 -147 147 -267 234 -450 325 -253 126 -461 178 -740 185 -93 2 -204 0 -245 -5z m306 -495 c86 -50 120 -164 80 -260 -12 -29 -138 -160 -461 -480 -410 -407 -444 -443 -454 -485 -30 -132 74 -240 207 -215 32 6 82 51 372 340 370 367 406 396 565 446 58 19 239 17 300 -3 173 -56 294 -156 368 -303 83 -165 83 -352 2 -521 -41 -85 -56 -102 -625 -680 -354 -360 -354 -360 -456 -352 -142 12 -229 172 -161 296 12 23 210 232 440 466 262 267 423 438 432 460 58 138 -81 279 -222 225 -15 -6 -181 -162 -368 -348 -315 -313 -345 -341 -415 -374 -182 -88 -361 -90 -537 -5 -90 44 -209 159 -252 247 -90 178 -92 364 -4 541 34 71 65 103 507 546 511 512 495 499 595 488 24 -2 64 -15 87 -29z" fill="#0087a8"/>
</g>
</svg>